<svg xmlns="http://www.w3.org/2000/svg" width="222.996" height="158.043" viewBox="0 0 222.996 158.043">
  <g id="Logo" transform="translate(-0.002 0.25)">
    <g id="Group_1" data-name="Group 1" transform="translate(0.002 -0.25)">
      <g id="Path_1" data-name="Path 1" transform="translate(-4210.27 -807.46)" fill="rgba(255,255,255,0.3)">
        <path d="M 4395.65380859375 901.4284057617188 C 4394.24169921875 897.3155517578125 4392.00244140625 893.402099609375 4388.98681640625 889.7800903320312 C 4385.896484375 886.0684814453125 4382.13671875 882.82763671875 4377.81201171875 880.1476440429688 C 4370.63037109375 875.716064453125 4362.45263671875 873.2759399414062 4354.7841796875 873.2759399414062 C 4351.0478515625 873.2759399414062 4347.490234375 873.855224609375 4344.19873046875 874.9988403320312 C 4341.828125 868.4170532226562 4337.5869140625 862.434326171875 4331.88232421875 857.628662109375 C 4334.7373046875 849.7891845703125 4339.85888671875 843.1698608398438 4346.71923828125 838.4627685546875 C 4350.0546875 836.174072265625 4353.712890625 834.4019775390625 4357.59130859375 833.1956787109375 C 4361.48046875 831.9862670898438 4365.50390625 831.3729858398438 4369.5498046875 831.3729858398438 C 4377.79931640625 831.3729858398438 4385.75830078125 833.931396484375 4392.5654296875 838.7716064453125 C 4395.17626953125 840.63427734375 4397.55029296875 842.7907104492188 4399.6201171875 845.1802978515625 C 4401.6220703125 847.4913330078125 4403.35546875 850.037841796875 4404.77197265625 852.7490234375 C 4406.1552734375 855.39697265625 4407.24267578125 858.2127685546875 4408.00390625 861.1181640625 C 4408.755859375 863.9893798828125 4409.19091796875 866.9525146484375 4409.29638671875 869.92529296875 C 4409.4013671875 872.8889770507812 4409.17919921875 875.8646850585938 4408.63623046875 878.7698364257812 C 4408.08544921875 881.7149047851562 4407.20361328125 884.5935668945312 4406.0146484375 887.325927734375 C 4404.79541015625 890.1275634765625 4403.2470703125 892.7889404296875 4401.41259765625 895.236083984375 C 4399.73193359375 897.4780883789062 4397.79833984375 899.5570678710938 4395.65380859375 901.4284057617188 Z" stroke="none"/>
        <path d="M 4369.5458984375 832.1229858398438 C 4365.576171875 832.1229858398438 4361.62841796875 832.7249145507812 4357.81201171875 833.912109375 C 4354.00537109375 835.0962524414062 4350.41552734375 836.8355712890625 4347.14208984375 839.0819091796875 C 4340.5546875 843.6024169921875 4335.6015625 849.9198608398438 4332.76806640625 857.3981323242188 C 4338.1748046875 862.06005859375 4342.25048828125 867.777587890625 4344.6494140625 874.0577392578125 C 4347.8232421875 873.0407104492188 4351.22509765625 872.5260009765625 4354.7841796875 872.5259399414062 C 4362.58935546875 872.5256958007812 4370.9072265625 875.0055541992188 4378.20703125 879.5101318359375 C 4382.60009765625 882.232666015625 4386.4208984375 885.5265502929688 4389.56298828125 889.3002319335938 C 4392.37841796875 892.6814575195312 4394.53125 896.3147583007812 4395.98095703125 900.127685546875 C 4397.7607421875 898.4867553710938 4399.38037109375 896.6967163085938 4400.8125 894.7862548828125 C 4402.61181640625 892.3856811523438 4404.130859375 889.7749633789062 4405.32666015625 887.026611328125 C 4406.4931640625 884.3460083007812 4407.35888671875 881.5216674804688 4407.89892578125 878.6319580078125 C 4408.43212890625 875.7809448242188 4408.64990234375 872.8605346679688 4408.546875 869.951904296875 C 4408.443359375 867.0342407226562 4408.0166015625 864.1260986328125 4407.2783203125 861.3082275390625 C 4406.53125 858.457275390625 4405.46435546875 855.6943969726562 4404.10693359375 853.0963745117188 C 4402.71728515625 850.4366455078125 4401.01708984375 847.9384765625 4399.05322265625 845.6713256835938 C 4397.02197265625 843.3265991210938 4394.6923828125 841.2103881835938 4392.130859375 839.3828735351562 C 4385.4521484375 834.6342163085938 4377.64404296875 832.123779296875 4369.546875 832.1229858398438 L 4369.5458984375 832.1229858398438 M 4369.5498046875 830.6229858398438 C 4377.5830078125 830.623779296875 4385.75927734375 833.011962890625 4393 838.160400390625 C 4414.6875 853.632568359375 4415.9990234375 885.607666015625 4395.2861328125 902.724609375 C 4392.4990234375 893.608642578125 4385.6943359375 885.914794921875 4377.4169921875 880.78515625 C 4370.7958984375 876.6995849609375 4362.728515625 874.0256958007812 4354.78466796875 874.0259399414062 C 4351.01953125 874.0260620117188 4347.28173828125 874.626708984375 4343.740234375 875.96240234375 C 4341.34375 868.853515625 4336.828125 862.664794921875 4331 857.869873046875 C 4336.97314453125 840.797607421875 4352.962890625 830.6213989257812 4369.5498046875 830.6229858398438 Z" stroke="none" fill="#fff"/>
      </g>
      <g id="Path_2" data-name="Path 2" transform="translate(-0.219 -1539.603)" fill="rgba(255,255,255,0.3)">
        <path d="M 175.6726837158203 1696.896240234375 L 44.92774200439453 1696.896240234375 C 39.80392837524414 1696.896240234375 34.68921661376953 1696.072631835938 29.72563743591309 1694.448486328125 C 24.73879623413086 1692.816650390625 20.17050552368164 1690.462890625 16.14766502380371 1687.452514648438 C 11.96987438201904 1684.326293945312 8.568216323852539 1680.625366210938 6.037137985229492 1676.452514648438 C 3.34166407585144 1672.008666992188 1.708006143569946 1667.13623046875 1.181585073471069 1661.970581054688 C 0.6399272084236145 1656.7275390625 1.137453556060791 1651.752807617188 2.660269260406494 1647.18359375 C 4.077006340026855 1642.9326171875 6.3826904296875 1639.017456054688 9.513216972351074 1635.546875 C 11.73274326324463 1633.086181640625 14.3706636428833 1630.847778320312 17.3537425994873 1628.893920898438 C 20.22621726989746 1627.012329101562 23.4206371307373 1625.392211914062 26.84824371337891 1624.078491210938 C 33.51600646972656 1621.52294921875 40.94387435913086 1620.172119140625 48.32879638671875 1620.172119140625 L 49.01998138427734 1620.172119140625 L 49.0762939453125 1619.483276367188 C 49.50874328613281 1614.193603515625 50.9095573425293 1609.264892578125 53.23982238769531 1604.833862304688 C 55.45561218261719 1600.62060546875 58.47203063964844 1596.923461914062 62.20524215698242 1593.84521484375 C 69.50587463378906 1587.825561523438 79.21434783935547 1584.510375976562 89.54229736328125 1584.510375976562 C 90.78369140625 1584.510375976562 92.04576873779297 1584.558715820312 93.29350280761719 1584.654296875 C 97.9046630859375 1585.008911132812 102.2470092773438 1585.942260742188 106.1996612548828 1587.428344726562 C 110.1305618286133 1588.90625 113.7051620483398 1590.94189453125 116.82421875 1593.478637695312 C 119.9643783569336 1596.032592773438 122.6679763793945 1599.115356445312 124.8599243164062 1602.641357421875 C 127.0936660766602 1606.234497070312 128.8165283203125 1610.321411132812 129.980712890625 1614.788452148438 L 130.21435546875 1615.684936523438 L 131.0425262451172 1615.269897460938 C 133.5127410888672 1614.03173828125 136.01416015625 1613.09326171875 138.4773406982422 1612.480224609375 C 140.9014739990234 1611.876953125 143.3610076904297 1611.571166992188 145.7876129150391 1611.571166992188 C 148.8984222412109 1611.571166992188 152.0643005371094 1612.074462890625 155.1973266601562 1613.067260742188 C 158.2792358398438 1614.0439453125 161.4237670898438 1615.52392578125 164.5435638427734 1617.466064453125 C 169.0559234619141 1620.2880859375 172.7194061279297 1623.619750976562 175.4309539794922 1627.367553710938 C 178.2689208984375 1631.290283203125 180.1654052734375 1635.80908203125 181.0676879882812 1640.798706054688 L 181.1575012207031 1641.29541015625 L 181.6514587402344 1641.399291992188 C 185.2005310058594 1642.145263671875 188.5661926269531 1643.303344726562 191.6549072265625 1644.841552734375 C 194.8616333007812 1646.4384765625 197.6787109375 1648.402221679688 200.0279083251953 1650.678344726562 C 202.5099029541016 1653.083129882812 204.4326934814453 1655.805541992188 205.7428741455078 1658.769897460938 C 207.1459197998047 1661.9443359375 207.8441162109375 1665.399169921875 207.8180389404297 1669.038330078125 C 207.7919464111328 1673.08447265625 206.841796875 1676.930297851562 204.993896484375 1680.469482421875 C 203.2655792236328 1683.779541015625 200.8053741455078 1686.73486328125 197.6815795898438 1689.253295898438 C 191.65673828125 1694.110473632812 183.6348266601562 1696.896240234375 175.6726837158203 1696.896240234375 Z" stroke="none"/>
        <path d="M 89.53962707519531 1585.260375976562 C 79.3863525390625 1585.260375976562 69.8480224609375 1588.514892578125 62.68165588378906 1594.424438476562 C 59.02590942382812 1597.43896484375 56.07249450683594 1601.058837890625 53.90341186523438 1605.183471679688 C 51.6204833984375 1609.524536132812 50.24794006347656 1614.356201171875 49.82376098632812 1619.544311523438 L 49.71113586425781 1620.922119140625 L 48.32876586914062 1620.922119140625 C 41.03465270996094 1620.922119140625 33.69963073730469 1622.255737304688 27.11668395996094 1624.77880859375 C 23.73893737792969 1626.073364257812 20.59248352050781 1627.6689453125 17.76470947265625 1629.521240234375 C 14.83543395996094 1631.43994140625 12.24662780761719 1633.63623046875 10.07015991210938 1636.049194335938 C 7.009292602539062 1639.442504882812 4.755661010742188 1643.268432617188 3.371795654296875 1647.420776367188 C 1.882904052734375 1651.88818359375 1.396957397460938 1656.757202148438 1.927719116210938 1661.89453125 C 2.442733764648438 1666.948486328125 4.041107177734375 1671.715698242188 6.678375244140625 1676.063598632812 C 9.159408569335938 1680.15380859375 12.49652099609375 1683.78369140625 16.59698486328125 1686.85205078125 C 20.55426025390625 1689.813354492188 25.04988098144531 1692.129272460938 29.95887756347656 1693.735595703125 C 34.8470458984375 1695.335205078125 39.88330078125 1696.146240234375 44.927734375 1696.146240234375 L 175.6726837158203 1696.146240234375 C 183.4666290283203 1696.146240234375 191.3169860839844 1693.421020507812 197.2108764648438 1688.66943359375 C 200.2538757324219 1686.216064453125 202.6487884521484 1683.340454101562 204.3290710449219 1680.122314453125 C 206.1212463378906 1676.689819335938 207.0427703857422 1672.959228515625 207.0680389404297 1669.032958984375 C 207.0933837890625 1665.500610351562 206.4167175292969 1662.149658203125 205.056884765625 1659.072998046875 C 203.7859039306641 1656.197387695312 201.9183197021484 1653.55419921875 199.5059967041016 1651.217041015625 C 197.2122192382812 1648.99462890625 194.4582366943359 1647.075439453125 191.3205718994141 1645.512939453125 C 188.2889404296875 1644.003173828125 184.9838562011719 1642.866088867188 181.4971923828125 1642.133178710938 L 180.5092926025391 1641.925537109375 L 180.3296508789062 1640.932250976562 C 179.447509765625 1636.053955078125 177.5949096679688 1631.638061523438 174.8233032226562 1627.807250976562 C 172.1687164306641 1624.138061523438 168.5758514404297 1620.872436523438 164.1471557617188 1618.102783203125 C 161.0804595947266 1616.193603515625 157.9930725097656 1614.739990234375 154.9707336425781 1613.7822265625 C 151.9111022949219 1612.812744140625 148.8214416503906 1612.321166992188 145.78759765625 1612.321166992188 C 143.4219665527344 1612.321166992188 141.0233764648438 1612.619506835938 138.6584625244141 1613.2080078125 C 136.248779296875 1613.807739257812 133.7994689941406 1614.726928710938 131.3785705566406 1615.940307617188 L 129.7221832275391 1616.7705078125 L 129.2549438476562 1614.977661132812 C 128.1098327636719 1610.583618164062 126.4168243408203 1606.566284179688 124.2229614257812 1603.037353515625 C 122.0749893188477 1599.582153320312 119.4264907836914 1596.561889648438 116.350959777832 1594.060424804688 C 113.2948760986328 1591.574951171875 109.7906875610352 1589.579711914062 105.9357147216797 1588.13037109375 C 102.0493774414062 1586.669189453125 97.77651977539062 1585.751342773438 93.23623657226562 1585.402099609375 C 92.00823974609375 1585.30810546875 90.765380859375 1585.260375976562 89.54074096679688 1585.260375976562 L 89.53962707519531 1585.260375976562 M 89.542236328125 1583.760375976562 C 90.80229949951172 1583.760375976562 92.07453918457031 1583.808837890625 93.35076904296875 1583.906494140625 C 112.1958770751953 1585.355712890625 125.9115447998047 1596.200439453125 130.7064514160156 1614.599365234375 C 135.8024291992188 1612.045288085938 140.8228149414062 1610.821166992188 145.78759765625 1610.821166992188 C 152.2570495605469 1610.821166992188 158.6307373046875 1612.901611328125 164.9399108886719 1616.829345703125 C 173.9442901611328 1622.460693359375 179.9100799560547 1630.182373046875 181.8057098388672 1640.665283203125 C 195.9953002929688 1643.647705078125 208.6795196533203 1653.488525390625 208.5680236816406 1669.043701171875 C 208.4564971923828 1686.356201171875 191.8694610595703 1697.646240234375 175.6726837158203 1697.646240234375 L 44.927734375 1697.646240234375 C 24.07545471191406 1697.646240234375 2.665634155273438 1683.930908203125 0.4354400634765625 1662.046630859375 C -2.435928344726562 1634.252685546875 23.71304321289062 1619.422119140625 48.32876586914062 1619.422119140625 C 50.14360046386719 1597.22314453125 68.50759887695312 1583.75927734375 89.542236328125 1583.760375976562 Z" stroke="none" fill="#fff"/>
      </g>
      <path id="Path_3" data-name="Path 3" d="M5630.214,2.823v9.395c0,4.126-6.214,4.042-6.214,0V2.823C5624-1.274,5630.214-1.274,5630.214,2.823Z" transform="translate(-5467.225 0.25)" fill="#fff"/>
      <path id="Path_4" data-name="Path 4" d="M4534.622,278.453l4.713,8.14c2.063,3.568-3.373,6.607-5.382,3.094l-4.71-8.14C4527.206,278.007,4532.588,274.913,4534.622,278.453Z" transform="translate(-4402.547 -269.163)" fill="#fff"/>
      <path id="Path_5" data-name="Path 5" d="M3726.744,1064.855l8.14,4.683c3.6,2.063.417,7.388-3.094,5.38l-8.141-4.711C3720.108,1068.172,3723.231,1062.792,3726.744,1064.855Z" transform="translate(-3618.334 -1034.713)" fill="#fff"/>
      <path id="Path_6" data-name="Path 6" d="M7189.608,3133.6l-8.166-4.71c-3.568-2.063-.393-7.388,3.121-5.382l8.141,4.712C7196.245,3130.251,7193.122,3135.632,7189.608,3133.6Z" transform="translate(-6979.729 -3035.99)" fill="#fff"/>
      <path id="Path_7" data-name="Path 7" d="M7454.97,2212.217h-9.422c-4.125,0-4.014-6.217,0-6.217h9.422C7459.04,2206,7459.04,2212.217,7454.97,2212.217Z" transform="translate(-7235.026 -2144.495)" fill="#fff"/>
      <path id="Path_8" data-name="Path 8" d="M7220.413,1116.621l-8.141,4.712c-3.6,2.063-6.607-3.373-3.123-5.381l8.139-4.711C7220.831,1109.206,7223.927,1114.586,7220.413,1116.621Z" transform="translate(-7006.683 -1079.816)" fill="#fff"/>
      <path id="Path_9" data-name="Path 9" d="M6552.183,308.548l-4.711,8.14c-2.064,3.568-7.387.39-5.352-3.094l4.682-8.14C6548.839,301.913,6554.218,305.007,6552.183,308.548Z" transform="translate(-6359.306 -295.41)" fill="#fff"/>
    </g>
  </g>
</svg>
