<svg id="noun_weather_2054801" xmlns="http://www.w3.org/2000/svg" width="68.412" height="68.264" viewBox="0 0 68.412 68.264">
  <path id="Path_10" data-name="Path 10" d="M59.383,18.384a16.59,16.59,0,0,0-31.824.733,11.923,11.923,0,0,0-1.7-.121,12.373,12.373,0,0,0-11.917,8.87,12.445,12.445,0,0,0,5.3,23.709H58.594a16.6,16.6,0,0,0,.788-33.19ZM58.593,48.4H19.234a9.266,9.266,0,0,1-3.375-17.9l.781-.307.188-.819a9.216,9.216,0,0,1,9.028-7.2,9.346,9.346,0,0,1,2.5.35L30.061,23l.287-1.749a13.407,13.407,0,0,1,26.279-.91l.3,1.26,1.67-.058a13.426,13.426,0,0,1,0,26.852Z" transform="translate(-6.786 -6.837)" fill="#fff"/>
  <path id="Path_11" data-name="Path 11" d="M19.648,54a2.694,2.694,0,0,0,1.812,3.752,2.694,2.694,0,0,0,3.8-1.711c.7-1.928-.359-7.744-.359-7.744S20.352,52.069,19.648,54Z" transform="translate(-1.575 10.268)" fill="#fff"/>
  <path id="Path_12" data-name="Path 12" d="M31.234,54a2.7,2.7,0,0,0,1.81,3.752,2.7,2.7,0,0,0,3.8-1.711c.7-1.928-.359-7.744-.359-7.744S31.938,52.069,31.234,54Z" transform="translate(3.205 10.268)" fill="#fff"/>
  <circle id="Ellipse_1" data-name="Ellipse 1" cx="3.444" cy="3.444" r="3.444" transform="translate(11.354 49.53)" fill="#fff"/>
  <circle id="Ellipse_2" data-name="Ellipse 2" cx="3.444" cy="3.444" r="3.444" transform="translate(27.721 49.53)" fill="#fff"/>
  <circle id="Ellipse_3" data-name="Ellipse 3" cx="3.444" cy="3.444" r="3.444" transform="translate(44.087 49.53)" fill="#fff"/>
</svg>
